<?xml version="1.0" encoding="iso-8859-1"?>
<!-- Generator: Adobe Illustrator 18.0.0, SVG Export Plug-In . SVG Version: 6.00 Build 0)  -->
<!DOCTYPE svg PUBLIC "-//W3C//DTD SVG 1.1//EN" "http://www.w3.org/Graphics/SVG/1.1/DTD/svg11.dtd">
<svg version="1.1" id="Capa_1" xmlns="http://www.w3.org/2000/svg" xmlns:xlink="http://www.w3.org/1999/xlink" x="0px" y="0px"
	 viewBox="0 0 185.649 185.649" style="enable-background:new 0 0 185.649 185.649;" xml:space="preserve">
<g id="CHILE">
	<g>
		<g>
			<path style="fill:#630F35;" d="M153.481,33.362c0.26,0.536,0.525,1.208,0.848,1.958c0.246,0.788,0.581,1.642,0.775,2.629
				c0.062,0.239,0.117,0.49,0.177,0.743c0.054,0.25,0.078,0.515,0.123,0.78c0.079,0.531,0.175,1.067,0.194,1.639
				c0.036,0.57,0.088,1.141,0.063,1.738c-0.007,0.291-0.008,0.595-0.013,0.893c-0.006,0.3-0.049,0.605-0.069,0.908
				c-0.028,0.31-0.044,0.612-0.087,0.918c-0.049,0.309-0.096,0.617-0.143,0.928c-0.076,0.621-0.239,1.242-0.377,1.863
				c-0.138,0.62-0.345,1.236-0.516,1.856c-0.219,0.609-0.403,1.229-0.655,1.832c-0.244,0.603-0.476,1.2-0.76,1.788
				c-0.26,0.588-0.556,1.166-0.85,1.729c-0.282,0.57-0.618,1.117-0.916,1.663c-0.335,0.535-0.64,1.068-0.98,1.578
				c-0.66,1.021-1.338,1.986-2.012,2.873c-0.125,0.171-0.255,0.337-0.383,0.499c-1.534,1.187-3.385,2.305-5.39,2.237
				c-1.89-0.061-3.588-1.104-5.388-1.575c-6.672-1.74-14.846,1.776-18.886,7.196c0,0,5.278-5.363,12.112-4.122
				c1.434,0.267,2.939,0.816,4.479,1.776c8.859,5.508,4.955,8.904,14.103,11.587c2.022,0.594,3.694,1.354,5.037,2.262
				c0,0,0,0,0.004,0.004c4.723,3.206,5.273,8.22,2.118,13.988c0.791-1.445,2.085-2.667,2.835-4.25
				c1.817-3.833,1.988-7.688,0.249-11.6c-1.557-3.513-4.985-6.197-5.95-9.971c-0.753-2.966,0.054-6.168,1.189-8.951
				c0.078-0.184,0.155-0.372,0.233-0.55c0.16-0.367,0.311-0.749,0.47-1.124c0.238-0.649,0.503-1.295,0.723-1.966
				c0.226-0.669,0.444-1.342,0.635-2.033c0.203-0.681,0.364-1.386,0.526-2.08c0.164-0.692,0.273-1.413,0.404-2.107
				c0.087-0.71,0.2-1.406,0.249-2.115c0.048-0.704,0.113-1.396,0.098-2.085c-0.001-0.349,0.005-0.689,0.003-1.026
				c-0.012-0.341-0.04-0.677-0.059-1.013c-0.028-0.329-0.04-0.663-0.081-0.989c-0.045-0.323-0.092-0.643-0.136-0.965
				c-0.068-0.632-0.222-1.246-0.352-1.833c-0.109-0.594-0.304-1.156-0.471-1.699c-0.089-0.272-0.16-0.541-0.256-0.795
				c-0.101-0.255-0.201-0.503-0.302-0.746c-0.356-0.989-0.842-1.816-1.214-2.571c-0.443-0.721-0.815-1.344-1.156-1.842
				c-0.713-0.961-1.126-1.507-1.126-1.507S152.923,32.31,153.481,33.362z"/>
			<path style="fill:#6DD47E;" d="M148.932,79.277c-9.147-2.683-5.243-6.079-14.103-11.587c-1.539-0.96-3.045-1.51-4.479-1.776
				c-7.307,1.095-13.828,5.98-16.663,13.367l-0.066,0.176c0,0-0.636,1.656-1.747,4.558c-0.14,0.363-0.286,0.751-0.443,1.153
				c-0.075,0.204-0.151,0.411-0.235,0.626c-0.092,0.201-0.182,0.411-0.274,0.622c-0.373,0.855-0.78,1.777-1.214,2.764
				c-0.22,0.499-0.444,1.007-0.678,1.538c-0.232,0.528-0.459,1.083-0.739,1.606c-0.54,1.081-1.108,2.217-1.705,3.404
				c-0.301,0.591-0.583,1.221-0.924,1.813c-0.337,0.603-0.681,1.211-1.035,1.823c-0.352,0.625-0.708,1.265-1.069,1.903
				c-0.184,0.329-0.366,0.651-0.556,0.981c-0.188,0.318-0.396,0.629-0.595,0.948c-0.822,1.285-1.658,2.605-2.516,3.953
				c-0.927,1.295-1.872,2.627-2.83,3.974c-1.002,1.325-2.075,2.612-3.143,3.972c-0.263,0.346-0.543,0.667-0.832,0.979
				c-0.287,0.324-0.577,0.645-0.86,0.968c-0.579,0.647-1.162,1.304-1.744,1.962c-1.204,1.267-2.465,2.504-3.729,3.784
				c-0.661,0.595-1.321,1.196-1.983,1.794c-0.673,0.599-1.325,1.24-2.036,1.785c-1.4,1.114-2.777,2.329-4.261,3.351
				c-0.73,0.539-1.467,1.073-2.192,1.608c-0.759,0.493-1.515,0.988-2.265,1.482c-0.382,0.244-0.758,0.498-1.136,0.741
				c-0.38,0.245-0.771,0.46-1.159,0.691c-0.774,0.459-1.547,0.91-2.318,1.364c-0.776,0.441-1.574,0.83-2.354,1.248
				c-0.787,0.413-1.563,0.835-2.36,1.188c-0.797,0.369-1.589,0.736-2.369,1.104c-0.789,0.358-1.585,0.665-2.374,0.999
				c-1.563,0.681-3.147,1.2-4.686,1.78c-3.1,1.014-6.1,1.918-8.929,2.532c-2.826,0.642-5.47,1.122-7.823,1.425
				c-2.362,0.324-4.443,0.493-6.156,0.587c-1.718,0.1-3.068,0.097-3.983,0.09c-0.449-0.01-0.796-0.016-1.024-0.022
				c-0.109-0.001-0.196-0.005-0.263-0.007c-0.061-0.008-0.094-0.01-0.094-0.01l-0.012-0.003c-0.688-0.039-1.353,0.366-1.607,1.042
				c-0.317,0.835,0.104,1.77,0.938,2.085c0,0,0.026,0.007,0.091,0.03c0.058,0.025,0.156,0.058,0.273,0.101
				c0.245,0.081,0.61,0.204,1.088,0.362c0.943,0.293,2.324,0.727,4.101,1.161c1.783,0.443,3.965,0.925,6.496,1.338
				c2.532,0.443,5.415,0.793,8.606,1.038c3.184,0.263,6.659,0.307,10.375,0.23c1.841-0.099,3.764-0.143,5.714-0.354
				c0.97-0.098,1.964-0.168,2.965-0.293c0.996-0.134,2.004-0.271,3.018-0.41c1.027-0.123,2.042-0.324,3.071-0.511
				c1.028-0.196,2.073-0.367,3.114-0.595c1.045-0.242,2.092-0.484,3.14-0.73c0.528-0.128,1.064-0.241,1.588-0.386
				c0.519-0.148,1.045-0.295,1.571-0.444c1.06-0.307,2.119-0.612,3.18-0.917c1.051-0.355,2.105-0.714,3.158-1.072
				c2.14-0.683,4.189-1.576,6.303-2.406c1.061-0.4,2.061-0.907,3.096-1.369c1.03-0.48,2.055-0.96,3.081-1.436
				c1.992-1.04,4.004-2.08,5.967-3.177c0.965-0.574,1.918-1.147,2.876-1.719c0.477-0.29,0.951-0.575,1.432-0.862
				c0.479-0.28,0.952-0.576,1.401-0.883c1.814-1.234,3.653-2.437,5.394-3.691c1.716-1.296,3.404-2.568,5.056-3.819
				c1.579-1.33,3.128-2.634,4.637-3.901c0.376-0.319,0.764-0.633,1.123-0.96c0.348-0.328,0.702-0.651,1.053-0.981
				c0.696-0.652,1.387-1.294,2.061-1.931c0.679-0.634,1.346-1.263,2-1.876c0.653-0.616,1.237-1.258,1.842-1.87
				c1.195-1.238,2.336-2.431,3.424-3.558c0.561-0.562,1.05-1.138,1.535-1.688c0.486-0.557,0.958-1.102,1.412-1.624
				c0.919-1.052,1.78-2.037,2.57-2.952c0.2-0.228,0.395-0.453,0.585-0.669c0.181-0.227,0.35-0.449,0.521-0.663
				c0.346-0.43,0.673-0.84,0.979-1.227c2.48-3.144,3.895-4.938,3.895-4.938c1.265-1.617,2.376-3.52,3.149-5.538
				c1.647-4.29,1.805-8.779,0.727-12.91c-0.004-0.004-0.004-0.004-0.004-0.004C152.626,80.632,150.955,79.871,148.932,79.277z"/>
		</g>
		<g>
			<path style="fill:#521230;" d="M157.479,42.705c-0.068-0.632-0.222-1.246-0.352-1.833c-0.109-0.594-0.304-1.156-0.471-1.699
				c-0.089-0.272-0.16-0.541-0.256-0.795c-0.101-0.255-0.201-0.503-0.302-0.746c-0.356-0.989-0.842-1.816-1.214-2.571
				c-0.443-0.721-0.815-1.344-1.156-1.842c-0.713-0.961-1.126-1.507-1.126-1.507s0.321,0.598,0.879,1.65
				c0.26,0.536,0.525,1.208,0.848,1.958c0.246,0.788,0.581,1.642,0.775,2.629c0.062,0.239,0.117,0.49,0.177,0.743
				c0.054,0.25,0.078,0.515,0.123,0.78c0.057,0.383,0.113,0.771,0.153,1.17c0.895,0.875,1.58,1.926,2.057,3.017
				C157.569,43.342,157.521,43.025,157.479,42.705z"/>
			<path style="fill:#521230;" d="M153.225,69.71c-0.753-2.966,0.054-6.168,1.189-8.951c0.078-0.184,0.155-0.372,0.233-0.55
				c0.16-0.367,0.311-0.749,0.47-1.124c0.238-0.649,0.503-1.295,0.723-1.966c0.226-0.669,0.444-1.342,0.635-2.033
				c0.203-0.681,0.364-1.386,0.526-2.08c0.164-0.692,0.273-1.413,0.404-2.107c0.087-0.71,0.2-1.406,0.249-2.115
				c0.048-0.704,0.113-1.396,0.098-2.085c-0.001-0.349,0.005-0.689,0.003-1.026c-0.012-0.341-0.04-0.677-0.059-1.013
				c-0.028-0.329-0.04-0.663-0.081-0.989c0-0.004,0-0.005-0.001-0.01c-0.477-1.092-1.161-2.142-2.057-3.017
				c0.016,0.156,0.038,0.308,0.041,0.469c0.036,0.57,0.088,1.141,0.063,1.738c-0.007,0.291-0.008,0.595-0.013,0.893
				c-0.006,0.3-0.049,0.605-0.069,0.908c-0.028,0.31-0.044,0.612-0.087,0.918c-0.049,0.309-0.096,0.617-0.143,0.928
				c-0.076,0.621-0.239,1.242-0.377,1.863c-0.138,0.62-0.345,1.236-0.516,1.856c-0.219,0.609-0.403,1.229-0.655,1.832
				c-0.244,0.603-0.476,1.2-0.76,1.788c-0.26,0.588-0.556,1.166-0.85,1.729c-0.282,0.57-0.618,1.117-0.916,1.663
				c-0.335,0.535-0.64,1.068-0.98,1.578c-0.66,1.021-1.338,1.986-2.012,2.873c-0.125,0.171-0.255,0.337-0.383,0.499
				c-1.534,1.187-3.385,2.305-5.39,2.237c-1.89-0.061-3.588-1.104-5.388-1.575c-6.672-1.74-14.846,1.776-18.886,7.196
				c0,0,5.278-5.363,12.112-4.122c1.434,0.267,2.939,0.816,4.479,1.776c8.859,5.508,4.955,8.904,14.103,11.587
				c1.005,0.295,1.925,0.631,2.759,1.007c1.115-2.412,2.108-4.878,2.965-7.4C154.033,71.891,153.516,70.85,153.225,69.71z"/>
			<path style="fill:#63C072;" d="M151.691,80.284c-0.834-0.376-1.754-0.712-2.759-1.007c-9.147-2.683-5.243-6.079-14.103-11.587
				c-1.539-0.96-3.045-1.51-4.479-1.776c-7.307,1.095-13.828,5.98-16.663,13.367l-0.066,0.176c0,0-0.636,1.656-1.747,4.558
				c-0.14,0.363-0.286,0.751-0.443,1.153c-0.075,0.204-0.151,0.411-0.235,0.626c-0.092,0.201-0.182,0.411-0.274,0.622
				c-0.373,0.855-0.78,1.777-1.214,2.764c-0.22,0.499-0.444,1.007-0.678,1.538c-0.232,0.528-0.459,1.083-0.739,1.606
				c-0.54,1.081-1.108,2.217-1.705,3.404c-0.301,0.591-0.583,1.221-0.924,1.813c-0.337,0.603-0.681,1.211-1.035,1.823
				c-0.352,0.625-0.708,1.265-1.069,1.903c-0.184,0.329-0.366,0.651-0.556,0.981c-0.188,0.318-0.396,0.629-0.595,0.948
				c-0.822,1.285-1.658,2.605-2.516,3.953c-0.927,1.295-1.872,2.627-2.83,3.974c-1.002,1.325-2.075,2.612-3.143,3.972
				c-0.263,0.346-0.543,0.667-0.832,0.979c-0.287,0.324-0.577,0.645-0.86,0.968c-0.579,0.647-1.162,1.304-1.744,1.962
				c-1.204,1.267-2.465,2.504-3.729,3.784c-0.661,0.595-1.321,1.196-1.983,1.794c-0.673,0.599-1.325,1.24-2.036,1.785
				c-1.4,1.114-2.777,2.329-4.261,3.351c-0.73,0.539-1.467,1.073-2.192,1.608c-0.759,0.493-1.515,0.988-2.265,1.482
				c-0.382,0.244-0.758,0.498-1.136,0.741c-0.38,0.245-0.771,0.46-1.159,0.691c-0.774,0.459-1.547,0.91-2.318,1.364
				c-0.776,0.441-1.574,0.83-2.354,1.248c-0.787,0.413-1.563,0.835-2.36,1.188c-0.797,0.369-1.589,0.736-2.369,1.104
				c-0.711,0.324-1.429,0.607-2.142,0.906C97.226,136.244,136.29,113.597,151.691,80.284z"/>
		</g>
	</g>
	<g>
		<g>
			<path style="fill:#6DD47E;" d="M44.435,54.917c5.938-6.427,11.848-5.608,16.277,0.744c-0.482-0.694-0.844-1.489-1.242-2.276
				c-0.312-0.616-0.649-1.231-1.087-1.787c-2.415-3.061-5.507-4.767-9.44-4.938c-3.519-0.149-7.128,1.572-10.618,0.826
				c-2.928-0.632-2.577-1.12-5.168-2.951c-0.243-0.194-0.487-0.392-0.735-0.596c-0.503-0.395-1.002-0.815-1.559-1.185
				c-0.558-0.377-1.095-0.785-1.71-1.11c-0.595-0.348-1.181-0.717-1.831-1.007c-0.316-0.156-0.635-0.305-0.956-0.462
				c-0.332-0.129-0.662-0.261-0.994-0.39c-0.65-0.289-1.349-0.476-2.032-0.695c-0.336-0.113-0.695-0.172-1.042-0.261
				c-0.349-0.073-0.692-0.176-1.042-0.239c-1.409-0.249-2.816-0.398-4.205-0.421c-0.346-0.023-0.689-0.012-1.033-0.001
				c-0.339,0.008-0.683,0.007-1.02,0.03c-0.67,0.063-1.336,0.092-1.98,0.184c-1.302,0.134-2.537,0.392-3.692,0.662
				c-1.162,0.275-2.243,0.58-3.226,0.912c-0.98,0.328-1.87,0.668-2.65,0.979c-0.782,0.314-1.444,0.622-1.989,0.881
				c-0.546,0.26-0.966,0.479-1.25,0.634C0.128,42.493,0.059,42.535,0,42.569c0.063-0.032,0.128-0.067,0.213-0.113
				c0.287-0.151,0.714-0.358,1.256-0.613c0.552-0.251,1.22-0.549,2.005-0.851c0.775-0.313,1.676-0.612,2.669-0.895
				c0.991-0.288,2.079-0.546,3.24-0.765c1.161-0.183,2.399-0.351,3.676-0.391c1.279-0.069,2.604,0.007,3.927,0.16
				c0.326,0.045,0.655,0.093,0.992,0.14c0.325,0.063,0.652,0.143,0.98,0.214c0.662,0.12,1.295,0.35,1.937,0.53
				c1.258,0.436,2.479,0.978,3.587,1.647c0.275,0.169,0.548,0.333,0.825,0.504c0.259,0.185,0.515,0.375,0.768,0.562
				c0.516,0.356,0.986,0.774,1.435,1.186c0.467,0.385,0.859,0.85,1.26,1.269c0.413,0.405,0.751,0.873,1.093,1.313
				c0.169,0.219,0.332,0.433,0.5,0.646c0.146,0.228,0.288,0.455,0.429,0.673c1.51,2.687-0.321,4.728-1.192,6.348
				c-0.819,1.53-2.371,2.492-3.489,3.785c-4.149,4.773-4.597,12.906-1.799,18.441c-0.125-0.384-2.25-7.033,1.894-12.045
				c0.76-0.917,1.725-1.772,2.953-2.534C37.301,56.743,38.498,61.342,44.435,54.917z"/>
			<path style="fill:#F21073;" d="M185.64,142.335c-0.094-0.881-0.887-1.518-1.766-1.424l-0.063,0.003c0,0-0.637,0.068-1.829,0.196
				c-0.591,0.063-1.324,0.14-2.185,0.234c-0.863,0.061-1.855,0.132-2.966,0.205c-1.101,0.099-2.334,0.117-3.661,0.168
				c-1.331,0.066-2.774,0.038-4.3,0.039c-0.768,0.008-1.556-0.03-2.367-0.061c-0.81-0.032-1.64-0.06-2.489-0.105
				c-1.707-0.139-3.484-0.243-5.333-0.484c-3.689-0.423-7.632-1.072-11.704-2.072c-4.065-1-8.253-2.313-12.427-3.978
				c-4.18-1.667-8.346-3.687-12.392-6.01c-4.047-2.328-7.986-4.94-11.72-7.823c-3.733-2.874-7.304-5.945-10.612-9.185
				c-3.318-3.239-6.419-6.574-9.249-9.951c-5.684-6.744-10.356-13.545-13.993-19.542c-3.646-5.993-6.262-11.175-7.913-14.742
				c-0.826-1.782-1.406-3.159-1.761-4.043c-0.165-0.435-0.292-0.762-0.343-0.937c-0.013-0.038-0.035-0.09-0.027-0.103
				c0.002-0.004,0.006-0.008,0.007-0.011c0.003-0.006-0.005-0.03-0.013-0.046c-0.008-0.018-0.01-0.033-0.01-0.033l-0.054-0.144
				c-0.609-1.503-1.398-2.955-2.374-4.335c-1.325-1.871-2.891-3.462-4.628-4.769c0.398,0.787,0.76,1.582,1.242,2.276
				c-4.429-6.352-10.339-7.171-16.277-0.744c-5.938,6.425-7.135,1.826-15.275,6.862c-1.228,0.762-2.193,1.617-2.953,2.534
				c-1.839,6.09-0.951,12.934,3.008,18.525c0,0,0.006,0.01,0.017,0.03c0.012,0.012,0.024,0.031,0.073,0.105
				c0.041,0.07,0.093,0.151,0.159,0.249c0.045,0.071,0.105,0.159,0.17,0.257c0.249,0.373,0.586,0.845,1.024,1.457
				c0.865,1.198,2.109,2.853,3.717,4.865c3.214,4.014,7.885,9.457,13.929,15.499c6.034,6.04,13.45,12.675,22.035,18.954
				c4.282,3.142,8.87,6.178,13.676,9.01c4.795,2.845,9.855,5.433,15.021,7.722c10.348,4.58,21.289,7.726,31.633,9.189
				c5.172,0.73,10.193,1.059,14.916,1.073c4.725,0.014,9.157-0.317,13.19-0.816c2.014-0.217,3.929-0.563,5.742-0.857
				c0.904-0.164,1.778-0.347,2.632-0.513c0.851-0.173,1.674-0.335,2.466-0.533c1.586-0.385,3.064-0.711,4.414-1.106
				c1.351-0.383,2.593-0.702,3.691-1.071c1.107-0.352,2.087-0.662,2.94-0.938c0.842-0.3,1.562-0.558,2.146-0.761
				c1.158-0.418,1.775-0.637,1.775-0.637C185.266,143.774,185.719,143.087,185.64,142.335z"/>
		</g>
		<g>
			<path style="fill:#63C072;" d="M60.712,55.661c-0.482-0.694-0.844-1.489-1.242-2.276c-0.312-0.616-0.649-1.231-1.087-1.787
				c-2.415-3.061-5.507-4.767-9.44-4.938c-1.067-0.046-2.143,0.088-3.221,0.266c0.995,1.511,1.935,3.075,2.834,4.676
				C53.042,49.187,57.314,50.787,60.712,55.661z"/>
			<path style="fill:#DE0F6A;" d="M63.763,84.417c11.316,24.948,34,40.46,59.673,45.334c-0.425-0.236-0.854-0.462-1.276-0.704
				c-4.047-2.328-7.986-4.94-11.72-7.823c-3.733-2.874-7.304-5.945-10.612-9.185c-3.318-3.239-6.419-6.574-9.249-9.951
				c-5.684-6.744-10.356-13.545-13.993-19.542c-3.646-5.993-6.262-11.175-7.913-14.742c-0.826-1.782-1.406-3.159-1.761-4.043
				c-0.165-0.435-0.292-0.762-0.343-0.937c-0.013-0.038-0.035-0.09-0.027-0.103c0.002-0.004,0.006-0.008,0.007-0.011
				c0.003-0.006-0.005-0.03-0.013-0.046c-0.008-0.018-0.01-0.033-0.01-0.033l-0.054-0.144c-0.609-1.503-1.398-2.955-2.374-4.335
				c-1.325-1.871-2.891-3.462-4.628-4.769c0.398,0.787,0.76,1.582,1.242,2.276c-3.398-4.874-7.67-6.475-12.155-4.059
				C54.414,62.03,58.488,74.121,63.763,84.417z"/>
		</g>
	</g>
</g>
<g>
</g>
<g>
</g>
<g>
</g>
<g>
</g>
<g>
</g>
<g>
</g>
<g>
</g>
<g>
</g>
<g>
</g>
<g>
</g>
<g>
</g>
<g>
</g>
<g>
</g>
<g>
</g>
<g>
</g>
</svg>
